REM DIRINDEX 1\2\4,1\2\5,1\2\6,1\3\7,1\3\8,1\3\9,1\3\10
REM DIRNAME folder01,folder02,folder03,folder04,folder05,folder06,folder07,folder08,folder09,folder10
TITLE ""
FILE "a_201.mp3" MP3
  TRACK 01 AUDIO
    TITLE "0:"
    INDEX 01 00:00:00
  TRACK 02 AUDIO
    TITLE "4:cjc057_04203"
    INDEX 01 00:00:13
  TRACK 03 AUDIO
    TITLE "0:"
    INDEX 01 00:01:38
  TRACK 04 AUDIO
    TITLE "5:cjc057_04204"
    INDEX 01 00:01:73
  TRACK 05 AUDIO
    TITLE "0:"
    INDEX 01 00:04:50
  TRACK 06 AUDIO
    TITLE "4:cjc057_04205"
    INDEX 01 00:05:59
  TRACK 07 AUDIO
    TITLE "0:"
    INDEX 01 00:07:00
  TRACK 08 AUDIO
    TITLE "5:cjc057_04206"
    INDEX 01 00:07:33
  TRACK 09 AUDIO
    TITLE "0:"
    INDEX 01 00:12:05
  TRACK 10 AUDIO
    TITLE "4:cjc057_04207"
    INDEX 01 00:13:16
  TRACK 11 AUDIO
    TITLE "0:"
    INDEX 01 00:14:29
  TRACK 12 AUDIO
    TITLE "5:cjc057_04208"
    INDEX 01 00:14:66
  TRACK 13 AUDIO
    TITLE "0:"
    INDEX 01 00:18:39
  TRACK 14 AUDIO
    TITLE "4:cjc057_04209"
    INDEX 01 00:19:48
  TRACK 15 AUDIO
    TITLE "0:"
    INDEX 01 00:20:53
  TRACK 16 AUDIO
    TITLE "5:cjc057_04210"
    INDEX 01 00:21:15
  TRACK 17 AUDIO
    TITLE "0:"
    INDEX 01 00:23:48
  TRACK 18 AUDIO
    TITLE "4:cjc057_04211"
    INDEX 01 00:24:61
  TRACK 19 AUDIO
    TITLE "0:"
    INDEX 01 00:26:03
  TRACK 20 AUDIO
    TITLE "5:cjc057_04212"
    INDEX 01 00:26:38
  TRACK 21 AUDIO
    TITLE "0:"
    INDEX 01 00:28:74
  TRACK 22 AUDIO
    TITLE "4:cjc057_04213"
    INDEX 01 00:30:10
  TRACK 23 AUDIO
    TITLE "0:"
    INDEX 01 00:31:18
  TRACK 24 AUDIO
    TITLE "5:cjc057_04214"
    INDEX 01 00:31:55
  TRACK 25 AUDIO
    TITLE "0:"
    INDEX 01 00:34:20
  TRACK 26 AUDIO
    TITLE "4:cjc057_04215"
    INDEX 01 00:35:33
  TRACK 27 AUDIO
    TITLE "0:"
    INDEX 01 00:36:60
  TRACK 28 AUDIO
    TITLE "5:cjc057_04216"
    INDEX 01 00:37:20
  TRACK 29 AUDIO
    TITLE "0:"
    INDEX 01 00:38:59
  TRACK 30 AUDIO
    TITLE "4:cjc057_04217"
    INDEX 01 00:39:68
  TRACK 31 AUDIO
    TITLE "0:"
    INDEX 01 00:41:02
  TRACK 32 AUDIO
    TITLE "5:cjc057_04218"
    INDEX 01 00:41:38
  TRACK 33 AUDIO
    TITLE "0:"
    INDEX 01 00:43:56
  TRACK 34 AUDIO
    TITLE "4:cjc057_04219"
    INDEX 01 00:44:69
  TRACK 35 AUDIO
    TITLE "0:"
    INDEX 01 00:46:19
  TRACK 36 AUDIO
    TITLE "5:cjc057_04220"
    INDEX 01 00:46:54
  TRACK 37 AUDIO
    TITLE "0:"
    INDEX 01 00:49:12
  TRACK 38 AUDIO
    TITLE "4:cjc057_04221"
    INDEX 01 00:50:23
  TRACK 39 AUDIO
    TITLE "0:"
    INDEX 01 00:51:28
  TRACK 40 AUDIO
    TITLE "5:cjc057_04222"
    INDEX 01 00:51:60
  TRACK 41 AUDIO
    TITLE "0:"
    INDEX 01 00:54:62
  TRACK 42 AUDIO
    TITLE "4:cjc057_04223"
    INDEX 01 00:55:73
  TRACK 43 AUDIO
    TITLE "0:"
    INDEX 01 00:57:03
  TRACK 44 AUDIO
    TITLE "5:cjc057_04224"
    INDEX 01 00:57:37
  TRACK 45 AUDIO
    TITLE "0:"
    INDEX 01 00:59:06
  TRACK 46 AUDIO
    TITLE "4:cjc057_04225"
    INDEX 01 01:00:15
  TRACK 47 AUDIO
    TITLE "0:"
    INDEX 01 01:01:40
  TRACK 48 AUDIO
    TITLE "5:cjc057_04226"
    INDEX 01 01:02:01
  TRACK 49 AUDIO
    TITLE "0:"
    INDEX 01 01:04:33
  TRACK 50 AUDIO
    TITLE "4:cjc057_04227"
    INDEX 01 01:05:42
  TRACK 51 AUDIO
    TITLE "0:"
    INDEX 01 01:06:57
  TRACK 52 AUDIO
    TITLE "5:cjc057_04228"
    INDEX 01 01:07:19
  TRACK 53 AUDIO
    TITLE "0:"
    INDEX 01 01:10:12
  TRACK 54 AUDIO
    TITLE "4:cjc057_04229"
    INDEX 01 01:11:23
  TRACK 55 AUDIO
    TITLE "0:"
    INDEX 01 01:12:34
  TRACK 56 AUDIO
    TITLE "5:cjc057_04230"
    INDEX 01 01:12:68
  TRACK 57 AUDIO
    TITLE "0:"
    INDEX 01 01:16:32
  TRACK 58 AUDIO
    TITLE "4:cjc057_04231"
    INDEX 01 01:17:45
  TRACK 59 AUDIO
    TITLE "0:"
    INDEX 01 01:18:58
  TRACK 60 AUDIO
    TITLE "5:cjc057_04232"
    INDEX 01 01:19:19
  TRACK 61 AUDIO
    TITLE "0:"
    INDEX 01 01:23:67
  TRACK 62 AUDIO
    TITLE "4:cjc057_04233"
    INDEX 01 01:25:02
  TRACK 63 AUDIO
    TITLE "0:"
    INDEX 01 01:26:11
  TRACK 64 AUDIO
    TITLE "5:cjc057_04234"
    INDEX 01 01:26:46
  TRACK 65 AUDIO
    TITLE "0:"
    INDEX 01 01:29:74
  TRACK 66 AUDIO
    TITLE "4:cjc057_04235"
    INDEX 01 01:31:10
  TRACK 67 AUDIO
    TITLE "0:"
    INDEX 01 01:32:06
  TRACK 68 AUDIO
    TITLE "5:cjc057_04236"
    INDEX 01 01:32:43
  TRACK 69 AUDIO
    TITLE "0:"
    INDEX 01 01:36:15
  TRACK 70 AUDIO
    TITLE "4:cjc057_04237"
    INDEX 01 01:37:26
  TRACK 71 AUDIO
    TITLE "0:"
    INDEX 01 01:38:53
  TRACK 72 AUDIO
    TITLE "5:cjc057_04238"
    INDEX 01 01:39:14
  TRACK 73 AUDIO
    TITLE "0:"
    INDEX 01 01:41:42
  TRACK 74 AUDIO
    TITLE "4:cjc057_04239"
    INDEX 01 01:42:49
  TRACK 75 AUDIO
    TITLE "0:"
    INDEX 01 01:43:51
  TRACK 76 AUDIO
    TITLE "5:cjc057_04240"
    INDEX 01 01:44:11
  TRACK 77 AUDIO
    TITLE "0:"
    INDEX 01 01:46:33
  TRACK 78 AUDIO
    TITLE "4:cjc057_04241"
    INDEX 01 01:47:42
  TRACK 79 AUDIO
    TITLE "0:"
    INDEX 01 01:48:48
  TRACK 80 AUDIO
    TITLE "5:cjc057_04242"
    INDEX 01 01:49:08
  TRACK 81 AUDIO
    TITLE "0:"
    INDEX 01 01:52:02
  TRACK 82 AUDIO
    TITLE "4:cjc057_04243"
    INDEX 01 01:53:12
  TRACK 83 AUDIO
    TITLE "0:"
    INDEX 01 01:54:33
  TRACK 84 AUDIO
    TITLE "5:cjc057_04244"
    INDEX 01 01:54:68
  TRACK 85 AUDIO
    TITLE "0:"
    INDEX 01 01:57:45
